<svg id="visual" viewBox="0 0 900 600" width="900" height="600" xmlns="http://www.w3.org/2000/svg" xmlns:xlink="http://www.w3.org/1999/xlink" version="1.1">
  <path d="M0 37L50 46C100 55 200 73 300 75C400 77 500 63 600 63C700 63 800 77 850 84L900 91L900 0L850 0C800 0 700 0 600 0C500 0 400 0 300 0C200 0 100 0 50 0L0 0Z" fill="#83009c"></path>
  <path d="M0 79L50 88C100 97 200 115 300 115C400 115 500 97 600 93C700 89 800 99 850 104L900 109L900 89L850 82C800 75 700 61 600 61C500 61 400 75 300 73C200 71 100 53 50 44L0 35Z" fill="#710990"></path><path d="M0 121L50 131C100 141 200 161 300 157C400 153 500 125 600 116C700 107 800 117 850 122L900 127L900 107L850 102C800 97 700 87 600 91C500 95 400 113 300 113C200 113 100 95 50 86L0 77Z" fill="#600d84"></path><path d="M0 181L50 186C100 191 200 201 300 193C400 185 500 159 600 154C700 149 800 165 850 173L900 181L900 125L850 120C800 115 700 105 600 114C500 123 400 151 300 155C200 159 100 139 50 129L0 119Z" fill="#4f0f78"></path><path d="M0 223L50 225C100 227 200 231 300 222C400 213 500 191 600 191C700 191 800 213 850 224L900 235L900 179L850 171C800 163 700 147 600 152C500 157 400 183 300 191C200 199 100 189 50 184L0 179Z" fill="#400f6b"></path><path d="M0 295L50 295C100 295 200 295 300 285C400 275 500 255 600 279C700 303 800 371 850 405L900 439L900 233L850 222C800 211 700 189 600 189C500 189 400 211 300 220C200 229 100 225 50 223L0 221Z" fill="#310e5e"></path><path d="M0 505L50 500C100 495 200 485 300 476C400 467 500 459 600 466C700 473 800 495 850 506L900 517L900 437L850 403C800 369 700 301 600 277C500 253 400 273 300 283C200 293 100 293 50 293L0 293Z" fill="#230b51"></path><path d="M0 583L50 578C100 573 200 563 300 562C400 561 500 569 600 574C700 579 800 581 850 582L900 583L900 515L850 504C800 493 700 471 600 464C500 457 400 465 300 474C200 483 100 493 50 498L0 503Z" fill="#160844"></path><path d="M0 601L50 601C100 601 200 601 300 601C400 601 500 601 600 601C700 601 800 601 850 601L900 601L900 581L850 580C800 579 700 577 600 572C500 567 400 559 300 560C200 561 100 571 50 576L0 581Z" fill="#0e0037"></path>
</svg>